<?xml version="1.0" encoding="UTF-8"?>
<svg id="Layer_2" data-name="Layer 2" xmlns="http://www.w3.org/2000/svg" xmlns:xlink="http://www.w3.org/1999/xlink" viewBox="0 0 1244.9 313.76">
  <defs>
    <style>
      .cls-1 {
        clip-path: url(#clippath);
      }

      .cls-2 {
        fill: none;
      }

      .cls-2, .cls-3, .cls-4, .cls-5, .cls-6, .cls-7, .cls-8, .cls-9, .cls-10, .cls-11, .cls-12, .cls-13, .cls-14 {
        stroke-width: 0px;
      }

      .cls-3 {
        fill: url(#linear-gradient);
      }

      .cls-15 {
        clip-path: url(#clippath-1);
      }

      .cls-16 {
        clip-path: url(#clippath-2);
      }

      .cls-4 {
        fill: url(#linear-gradient-4);
      }

      .cls-5 {
        fill: url(#linear-gradient-2);
      }

      .cls-6 {
        fill: url(#linear-gradient-3);
      }

      .cls-7 {
        fill: #d9a800;
      }

      .cls-8 {
        fill: #e1dbcf;
      }

      .cls-9 {
        fill: #aca59b;
      }

      .cls-10 {
        fill: #b18319;
      }

      .cls-11 {
        fill: #bd8c11;
      }

      .cls-12 {
        fill: #864215;
      }

      .cls-13 {
        fill: #fff;
      }

      .cls-14 {
        fill: #faf5eb;
      }
    </style>
    <clipPath id="clippath">
      <path class="cls-2" d="m1043.96,298.75l81.13-218.39-38.27,1.02s-13.46.38-25.26,12.55c-16.11,15.28-207.11,204.83-207.11,204.83h189.51Z"/>
    </clipPath>
    <clipPath id="clippath-1">
      <path class="cls-2" d="m1125.09,80.35c-.48.17-41.29,111.29-41.29,111.29l-46.7,125.53s-185.46.16-201.29,0c7.63-6.93,212.55-213.26,231.12-227.98,0,0,8.45-8.25,17.58-7.83,0,0,22.36-.84,40.58-1.01h0Z"/>
    </clipPath>
    <clipPath id="clippath-2">
      <path class="cls-2" d="m832.28,317.44c2.91,0,195.57-190.64,195.57-190.64,0,0,43.21-43.39,52.55-44.84,9.35-1.44,44.69-1.45,44.69-1.45l-87.99,236.66-204.82.26h0Z"/>
    </clipPath>
    <linearGradient id="linear-gradient" x1="-13818.04" y1="4872.77" x2="-13818.04" y2="4890.07" gradientTransform="translate(17321.58 6953.3) rotate(-41.79) scale(.56 -3.26)" gradientUnits="userSpaceOnUse">
      <stop offset=".07" stop-color="#fff" stop-opacity="0"/>
      <stop offset=".08" stop-color="#fff" stop-opacity=".02"/>
      <stop offset=".19" stop-color="#fff" stop-opacity=".3"/>
      <stop offset=".29" stop-color="#fff" stop-opacity=".51"/>
      <stop offset=".38" stop-color="#fff" stop-opacity=".67"/>
      <stop offset=".45" stop-color="#fff" stop-opacity=".76"/>
      <stop offset=".5" stop-color="#fff" stop-opacity=".8"/>
      <stop offset=".54" stop-color="#fff" stop-opacity=".76"/>
      <stop offset=".62" stop-color="#fff" stop-opacity=".67"/>
      <stop offset=".71" stop-color="#fff" stop-opacity=".51"/>
      <stop offset=".82" stop-color="#fff" stop-opacity=".3"/>
      <stop offset=".95" stop-color="#fff" stop-opacity=".02"/>
      <stop offset=".96" stop-color="#fff" stop-opacity="0"/>
    </linearGradient>
    <linearGradient id="linear-gradient-2" x1="-13471.5" y1="4873.7" x2="-13471.5" y2="4891.03" gradientTransform="translate(17321.58 6953.3) rotate(-41.79) scale(.56 -3.26)" gradientUnits="userSpaceOnUse">
      <stop offset=".07" stop-color="#fff" stop-opacity="0"/>
      <stop offset=".08" stop-color="#fff" stop-opacity=".02"/>
      <stop offset=".26" stop-color="#fff" stop-opacity=".17"/>
      <stop offset=".4" stop-color="#fff" stop-opacity=".26"/>
      <stop offset=".48" stop-color="#fff" stop-opacity=".3"/>
      <stop offset=".58" stop-color="#fff" stop-opacity=".26"/>
      <stop offset=".74" stop-color="#fff" stop-opacity=".17"/>
      <stop offset=".94" stop-color="#fff" stop-opacity=".02"/>
      <stop offset=".96" stop-color="#fff" stop-opacity="0"/>
    </linearGradient>
    <linearGradient id="linear-gradient-3" x1="855.65" y1="116.29" x2="1018.74" y2="210.46" gradientTransform="translate(0 314.52) scale(1 -1)" gradientUnits="userSpaceOnUse">
      <stop offset="0" stop-color="#b07b18"/>
      <stop offset=".5" stop-color="#ffdf82"/>
      <stop offset="1" stop-color="#b07b18"/>
    </linearGradient>
    <linearGradient id="linear-gradient-4" x1="709.3" y1="69.28" x2="881.25" y2="168.56" xlink:href="#linear-gradient-3"/>
  </defs>
  <g id="Layer_1-2" data-name="Layer 1">
    <g id="Layer_1-3" data-name="Layer 1">
      <rect class="cls-9" x="657.87" y="13.22" width=".99" height="285.52"/>
      <path class="cls-11" d="m130.65,298.67l18.21-45.86h5.87l18.01,45.86h-9.31l-3.64-9.51h-11.94l-2.56-6.54h12.07l-4.79-12.61-1.28-3.98-1.28,3.98-10.79,28.66h-8.57Zm56.92,0v-45.86h8.9v45.86h-8.9Zm52.94,0l-10.52-15.04h-5.06v15.04h-8.9v-45.86h14.7c5.4,0,9.51,1.23,12.34,3.68,2.83,2.45,4.25,6.1,4.25,10.96,0,3.55-.81,6.64-2.43,9.27-1.62,2.63-3.91,4.53-6.88,5.7l12.48,16.25h-9.98Zm-15.58-21.31h5.8c5.04,0,7.55-3.01,7.55-9.04,0-2.74-.58-4.83-1.75-6.27s-3.13-2.16-5.87-2.16h-5.73v17.47h0Zm49.1,21.31l-13.56-45.86h9.24l8.43,32.64h.34l8.16-25.36-2.36-7.28h8.77l10.59,32.64h.27l8.5-32.64h8.77l-13.89,45.86h-7.49l-9.24-28.39-9.31,28.39h-7.22,0Zm54.16,0l18.21-45.86h5.87l18.01,45.86h-9.31l-3.64-9.51h-11.94l-2.56-6.54h12.07l-4.79-12.61-1.28-3.98-1.28,3.98-10.79,28.66h-8.57,0Zm62.18,0v-18.82l-14.97-27.04h9.85l9.98,19.29,10.25-19.29h8.83l-15.04,27.04v18.82h-8.9Zm47.95,1.08c-4.86,0-8.75-1.01-11.67-3.04v-9.31c3.51,3.15,7.49,4.72,11.94,4.72,5.53,0,8.29-2.13,8.29-6.41,0-1.66-.55-2.96-1.65-3.88-1.1-.92-3.02-1.7-5.77-2.33l-1.69-.4c-7.73-1.89-11.6-6.27-11.6-13.15,0-4.5,1.4-7.99,4.22-10.49,2.81-2.5,6.84-3.74,12.11-3.74,4.99,0,8.9.99,11.73,2.97v9.31c-1.26-1.17-2.97-2.23-5.13-3.17-2.16-.94-4.47-1.42-6.95-1.42-2.61,0-4.5.45-5.67,1.35s-1.75,2.29-1.75,4.18c0,1.71.48,3,1.45,3.88.97.88,2.84,1.65,5.63,2.33l1.69.4c4.14.99,7.17,2.48,9.1,4.48s2.9,4.82,2.9,8.46c0,4.68-1.44,8.39-4.32,11.13s-7.17,4.11-12.88,4.11l.02.02ZM320.68,39.49l7.87-7.89-.72-.62-7.15-7.2-7.81,7.84,7.81,7.86h0Zm15.73,0l7.84-7.88-.68-.64-7.16-7.19-7.82,7.84,7.82,7.86h0Zm-13.74,68.77l1.14-.71-1.08-.86c-1.94-1.46-2.59-5.8-2.56-9.07v-.8h24.78l-.02-55s-3.31,7.35-15.23,15.98c0,0,.43,2.38,2.51,3.52,3.09,1.7,2.86,3.31,2.86,3.31v22.07h-14.79c.01-.33.02-.73.02-1.17v-1.02c-.06-5.57-1.77-18.54-16.68-18.54-.25,0-.53,0-.76.02-4.6.12-8.64.22-12.12.22h-.83c-8.85,0-13.49-.98-14.61-3.09l-.51-.92-.84.58c-1.62,1.03-2.55,3.02-2.55,5.44.04,3.56,1.98,7.49,5.53,7.76,2.22.1,5.42.14,8.64.14,5.75,0,11.49-.1,11.49-.1,12.33.09,12.52,5.3,12.62,7.81v2.86h-56.39V13.6s-6.65,8.8-15.81,15.53l.02.34c.01.14.03.29.03.57.23,1.71,1.45,2.35,2.63,2.96,1.4.74,3.06,1.43,3.06,3.98v59.82h66.46v1.23c-.07.29-.08.78-.08,1.6,0,4.74,1.67,8.02,4.66,9.21.06.03,1.52.84,3.67.84,1.65,0,3.25-.49,4.75-1.45v.03Zm-106.25,5.62c14.87,0,15.37-9.23,15.37-9.32,0,0,.04-34.04.04-34.36-.02-1.96-.54-8.34-6.64-8.41h-51.87v-3.74c0-.84.78-1.17,1.39-1.54,3.04-1.88,3.54-3.54,2.57-4.16-6.13-3.51-12.15-11.03-12.15-11.03v29.96h51.95s.23-.02.52-.02c1.62.04,3.78.47,3.82,3.8v23.99c0,.21-.05,5.19-5.19,5.19-8.23,0-7.68-4.18-7.73-4.18l.03-13.49h-43.41v10.27h34.07v8.31s-1.08,8.75,17.22,8.75v-.02Zm199.09-17.07s-.18-58.38,0-60.3c.13-2.54,1.46-3.24,2.87-3.98,1.17-.62,2.38-1.25,2.63-3.01l.02-.85c0-.97-.73-1.29-1.64-1.67-.89-.41-2.61-1.48-5.79-4.18-5.32-4.6-6.62-6.71-6.64-6.74l-1.78-2.85v83.59h10.33Zm-59.13,10.81l10.5-10.52-12.67-12.46V13.27s5.54,10.56,13.03,15.8l-.02.82c-.19,1.69-1.15,2.32-2.08,2.93-1.13.74-2.2,1.44-2.3,4.06-.14,1.84,0,41.75,0,42.4l10.55,10.95,10.5-10.95s.12-40.45,0-42.39c-.11-2.62-1.19-3.32-2.32-4.06-.94-.61-1.91-1.24-2.07-2.88l-.02-.56c8.27-5.37,13.01-16.11,13.01-16.11v70.4l-12.69,13.42,10.53,10.55-16.93,17-17.01-17v-.03Zm17.01,7.09l7.02-7.09-7.02-7.09-7.09,7.09,7.09,7.09Zm-43.79,88.97l17.92-19.21v-37.99c0-.28.35-.57.35-.57l2.59-1.3v-2.19h-24.02v2.15l2.47,1.57c.71.43.77.72.77.97v21.83h-48.09l-10.85,13.77v-35.5l.07-.69s.19-.18.57-.38l2.28-1.42.24-.13v-2.17h-23.98v2.14l2.37,1.54c.35.24.51.37.56.37h.02v65.25l-.12.84c-.1.15-.28.33-.45.44l-2.38,1.6v2.1h23.98v-2.13l-2.5-1.59c-.39-.21-.57-.34-.63-.34h-.02v-29.94l2.59.79,3.33-1.91c.6-.37,1.13-.62,1.51-.71.2-.07.6-.16,1.35-.16h50.1v22.96h-.03Zm255.21-32.21c-2.81-8.9-9.26-16.21-19.16-21.71-8.92-4.99-21.57-7.42-38.68-7.42h-65.3v2.12s2.73,1.82,2.82,1.82c.01,0,.02,0,.03-.02v7.74h62.35c12.6,0,21.83,1.68,27.42,4.96,8.91,5.2,13.25,11.95,13.27,20.63,0,4.36-1.17,8.34-3.47,11.84-2.28,3.48-5.77,6.46-10.39,8.86-6.04,3.13-15.24,4.71-27.36,4.71h-32.51v-45.66h-17.78v52.41l-.1.77c-.11.14-.3.33-.47.48l-2.19,1.38-.19.14v2.13h53.32c10.26,0,18.32-.58,23.97-1.73,7.74-1.62,14.61-4.43,20.42-8.36,5.93-3.98,10.17-8.6,12.61-13.72,1.81-3.74,2.73-7.88,2.73-12.3,0-3.14-.45-6.2-1.34-9.1v.03Zm-234.42,42.39c-.52-.08-.82-.19-.98-.28l44.76-46.55-10.35-11.02-57.91,60.52h26.66v-2.55h-.93c-.45,0-.86-.06-1.24-.12h-.01Zm38.24-60.73l11.44,12.14,11.82,11.9h-19.97l-10.95,11.46,2.37,1.62,2.58-1.39c.25-.1.5-.21.72-.22.17-.03.83-.04,1.87-.04h34.16l23.57,25.19s-.36.44-2.41.44h-.92v2.56h26.65l-70.64-74.44-10.3,10.78h0Zm-171.23-8.56l2.38,1.54c.55.38.83.72.83,1.03l.02,64.51-.17.83c-.22.19-.47.41-.64.52l-2.42,1.56v2.16h23.8v-2.14l-2.2-1.55c-.31-.21-.48-.35-.55-.35-.01,0-.02,0-.03.01v-65.47l.05-.7.54-.5,2.18-1.46v-2.16h-23.8v2.17Zm-99.8,57.87l-3.13,1.8c-.84.51-1.3.68-1.39.72l-53.29.14c-12.17,0-21.43-1.58-27.51-4.69-9.18-4.77-13.65-11.56-13.66-20.77,0-4.14,1.2-8.07,3.54-11.68,4.6-6.77,11.22-11.38,20.71-13.13,2.51-.45,4.93-.56,6.53-.56h27.45c1.64-.07,1.39.32,1.44.5l-.3,1.92h2.27l11.75-14.2h-32.78c-7.58,0-13.5.25-17.59.73-2.17.27-4.21.63-6.24,1.1-5.36,1.22-10.59,3.26-15.56,6.07-8.02,4.55-13.76,10.33-17.07,17.19C.91,171.49-.02,175.85,0,180.54c-.02,11.98,6.43,21.54,19.17,28.42,5.74,3.16,12.21,5.34,19.21,6.49,5.24.86,12.45,1.29,21.43,1.29h49.56l11.81-14.35h-.97l-2.64.06h.03Zm-23.65-17.87l11.54-14.42H27.8l-7.82,11.67h70.03c1.32.14,1.77.47,1.82.69l-.29,2.07h2.41Zm-4.81-28.57l2.21.77.31.08,3.37-1.7c.93-.62,1.86-.92,2.84-.92h42.92l.02,57.52-.19.81c-.18.22-.39.36-.52.42l-2.45,1.62v2.13h23.98v-2.16l-2.49-1.52-.6-.55c0-.14-.03-.35-.02-.62v-57.65h38.07c1.46.17,1.65.51,1.64.55v2.03h2.14l11.81-14.39h-112.21l-10.83,13.59h0Z"/>
      <g class="cls-1">
        <g>
          <path class="cls-14" d="m1037.1,317.18l45.82-124.35,41.93-112.79s-27.94.69-38.37.69c-8.21,0-13.6,3.59-13.6,3.59-13.06,11.92-76.06,71.4-237.07,232.86h201.29Z"/>
          <g class="cls-15">
            <g>
              <polyline class="cls-7" points="1070.1 292.86 1022.72 242.84 1052.58 231.84 1070.15 292.62"/>
              <polygon class="cls-10" points="1066.94 283.06 1111.73 211.04 1052.6 231.8 1066.94 283.06"/>
              <polygon class="cls-12" points="1034.28 155.77 1136.94 202.24 1052.59 231.79 1034.28 155.77"/>
              <polygon class="cls-8" points="1034.28 155.77 994.93 200.45 1022.72 242.84 1052.55 231.83 1034.28 155.77"/>
              <polygon class="cls-7" points="1034.28 155.77 1136.92 202.38 1146.87 61.95 1034.28 155.77"/>
              <polygon class="cls-10" points="1034.28 155.77 1021.73 82.34 1136.44 71.08 1034.28 155.77"/>
              <polyline class="cls-8" points="1059.3 281.34 1022.72 242.84 1007.54 279.4 1059.18 281.43"/>
              <polygon class="cls-8" points="1053.88 306.14 933.06 325.42 1007.54 279.4 1053.88 306.14"/>
              <polygon class="cls-7" points="1054.06 306.09 933.06 325.42 1032.84 340.49 1054.06 306.14 1054.06 306.09"/>
              <polygon class="cls-10" points="967.82 223.42 1022.72 242.84 1007.54 279.4 967.82 223.42"/>
              <polygon class="cls-12" points="967.82 223.42 1022.72 242.84 994.93 200.45 967.82 223.42"/>
              <path class="cls-12" d="m862.91,274.52c-4.99-7.07,18.75-2.71,12.39-8.45-2.1-1.9,13.11-2.74,10.99-4.61l34.09-34.43,29.85,43.65-68.87,3.34-9.18,1.96-8.91-1.11c.27-1.1.51-.68.52-.25,0,.41-.23.82-.88-.1"/>
              <polygon class="cls-8" points="967.82 223.42 922.7 230.42 950.23 270.68 967.82 223.42"/>
              <polygon class="cls-8" points="967.82 223.42 947.69 200.38 968.52 177.1 994.93 200.45 967.82 223.42"/>
              <polygon class="cls-12" points="1034.28 155.77 1027.74 117.73 975.74 172.92 979.23 171.89 987.64 168.23 1034.28 155.77"/>
              <polygon class="cls-13" points="980.48 170.15 974.77 172.58 965.9 175.21 994.93 200.45 1034.28 155.77 980.48 170.15"/>
              <polyline class="cls-13" points="1007.54 279.4 950.23 270.68 933.06 325.42 1007.23 279.59"/>
              <path class="cls-8" d="m871.72,281.46c1.06,0,55.37,35.98,55.37,35.98h-94.81l39.44-35.98Z"/>
            </g>
          </g>
          <g class="cls-16">
            <g>
              <polygon class="cls-3" points="1042.05 188.34 896.06 322.91 822.81 318.98 1028.64 122.72 1034.28 155.77 1042.05 188.34"/>
              <polygon class="cls-5" points="1042.05 188.34 1163.95 67.63 1098.39 56.21 1028.64 122.72 1034.28 155.77 1042.05 188.34"/>
            </g>
          </g>
        </g>
      </g>
      <path class="cls-6" d="m922.88,216.81c-.59-7.72-.85-16.36-.85-25.98,0-54.49,8.19-77.17,36.85-77.17,19.71,0,29.37,10.5,33.53,34.36,15.28-15.08,26.49-26.1,29.82-29.27,1.01-1.04,2.03-1.98,3.06-2.85-11.78-24.72-32.8-36.89-66.41-36.89-49.77,0-79.37,36.54-79.37,111.82,0,24.56,2.3,45.09,7.43,61.6,11.01-10.92,23.33-23.13,35.93-35.62h0Z"/>
      <path class="cls-4" d="m740.19,294.65v4.09h100.06l4.04-4.01c1.84-1.82,15-14.89,33.43-33.16h-70.12l19.84-25.83c18.58-24.25,40.95-54.49,40.95-88.51,0-41.26-21.1-67.72-69.93-67.72-29.29,0-51.34,12.28-61.11,23.94v38.74c11.65-13.54,33.7-27.09,54.81-27.09,25.51,0,36.85,12.91,36.85,36.22,0,19.84-10.71,37.48-22.99,54.18l-65.83,89.14h0Z"/>
      <path class="cls-9" d="m761.69,35.38c0-21.94,12.84-32.58,25.76-32.58,7.12,0,10.79,1.83,13.13,3.89l-.81,6.16c-2.42-3.01-6.46-5.21-12.25-5.21-10.71,0-20.03,8.59-20.03,26.64,0,10.79,5.28,15.92,14.24,15.92,5.5,0,10.13-1.91,13.72-5.14l-.81,5.72c-3.38,2.57-8.44,4.26-14.16,4.26-11.52,0-18.79-6.09-18.79-19.67h0Z"/>
      <path class="cls-9" d="m802.93,37.58c0-15.34,9.25-24.36,19.59-24.36,7.92,0,12.47,4.33,12.47,11.45,0,8-6.68,13.36-18.05,13.36-2.93,0-6.16-.44-8.07-1.17-.07.66-.07,1.25-.07,1.98,0,7.26,4.18,11.59,11.37,11.59,5.94,0,9.54-2.64,11.74-5.14l-.73,5.43c-1.47,1.61-5.14,4.26-11.81,4.26-10.05,0-16.44-5.58-16.44-17.39h0Zm26.56-12.7c0-4.18-2.42-7.12-7.63-7.12-6.24,0-11.96,5.28-12.84,15.34,1.76.59,4.33.95,6.82.95,8.95,0,13.65-3.16,13.65-9.17Z"/>
      <path class="cls-9" d="m841.67,45.94l6.38-45.94h5.5l-6.38,45.35c-.44,3.3.66,4.92,3.45,4.92,2.05,0,3.67-1.1,4.7-2.2l-.66,4.77c-1.17,1.03-3.08,1.98-6.09,1.98-5.58,0-7.71-3.3-6.9-8.88Z"/>
      <path class="cls-9" d="m861.04,37.58c0-15.34,9.25-24.36,19.59-24.36,7.92,0,12.47,4.33,12.47,11.45,0,8-6.68,13.36-18.05,13.36-2.93,0-6.16-.44-8.07-1.17-.07.66-.07,1.25-.07,1.98,0,7.26,4.18,11.59,11.37,11.59,5.94,0,9.54-2.64,11.74-5.14l-.73,5.43c-1.47,1.61-5.14,4.26-11.81,4.26-10.05,0-16.44-5.58-16.44-17.39h0Zm26.56-12.7c0-4.18-2.42-7.12-7.63-7.12-6.24,0-11.96,5.28-12.84,15.34,1.76.59,4.33.95,6.82.95,8.95,0,13.65-3.16,13.65-9.17Z"/>
      <path class="cls-9" d="m903.75,49.83l-1.32,4.04h-4.26L905.73,0h5.43l-2.64,18.71c1.91-2.86,5.8-5.5,11.37-5.5,8.81,0,13.65,5.36,13.65,16.51,0,15.41-8.66,25.24-19.52,25.24-4.84,0-8.51-2.13-10.27-5.14h0Zm24.14-19.52c0-8.29-3.01-12.62-9.47-12.62-5.5,0-9.32,3.67-10.79,7.19l-2.86,20.77c1.47,3.01,4.77,4.99,8.81,4.99,9.03,0,14.31-8.73,14.31-20.33h0Z"/>
      <path class="cls-9" d="m944.91,14.39h4.84l-.66,7.85c1.69-5.94,6.09-8.95,10.05-8.95,1.91,0,3.08.81,3.52,1.39l-.73,5.28c-.73-.88-1.76-1.69-3.74-1.69-3.45,0-7.63,3.3-9.69,9.32l-3.6,26.27h-5.5l5.5-39.48h0Z"/>
      <path class="cls-9" d="m963.91,38.02c0-15.04,8.37-24.8,19.37-24.8,4.84,0,8.14,2.2,9.76,4.99l.88-3.74h4.48l-4.4,31.48c-.37,3.01.51,4.04,2.5,4.04,1.61,0,2.94-.95,3.6-1.62l-.59,4.84c-.73.51-2.28,1.25-4.92,1.25-3.74,0-5.72-1.98-5.8-5.94-1.32,3.16-5.14,6.46-11.23,6.46-8.44,0-13.65-5.65-13.65-16.95h0Zm24.95,5.8l3.08-21.79c-1.17-2.2-3.67-4.4-7.85-4.4-9.32,0-14.46,8.51-14.46,20.03,0,8,3.16,12.84,9.47,12.84,5.43,0,8.58-3.3,9.76-6.68Z"/>
      <path class="cls-9" d="m1008.23,45.28l3.67-26.49h-5.28l.22-1.69,5.14-2.72,5.36-9.17h1.98l-1.32,9.17h11.23l-2.35,4.4h-9.47l-3.67,26.2c-.59,3.52.59,5.5,3.82,5.5,2.71,0,4.92-1.47,6.31-3.3l-.81,5.06c-1.17,1.25-3.74,2.71-7.34,2.71-6.16,0-8.44-3.45-7.48-9.69v.02Z"/>
      <path class="cls-9" d="m1032.96,46.16l4.4-27.3h-5.5l2.13-4.48h9.32l-4.92,31.77c-.37,2.64.44,3.82,2.42,3.82,1.76,0,2.93-.88,3.74-1.62l-.66,4.84c-.73.51-2.2,1.25-4.99,1.25-4.62,0-6.82-2.86-5.94-8.29h0Zm5.5-40.58c0-2.27,1.39-3.59,3.67-3.59,1.91,0,2.94.88,2.94,2.42,0,2.28-1.54,3.52-3.74,3.52-1.91,0-2.86-.81-2.86-2.35h-.01Z"/>
      <path class="cls-9" d="m1056.15,14.39h5.14l-.37,5.28c1.91-3.45,6.24-6.38,12.18-6.38,9.83,0,13.5,6.24,11.59,17.02l-2.86,15.85c-.51,2.64.37,3.82,2.2,3.82s2.86-.88,3.67-1.62l-.59,4.84c-.66.44-2.13,1.25-4.84,1.25-4.4,0-6.82-2.79-5.87-8.29l2.64-14.82c1.76-9.61-.81-13.8-7.71-13.8-5.72,0-9.69,3.67-11.15,7.12l-4.04,29.21h-5.5l5.5-39.48h0Z"/>
      <path class="cls-9" d="m1123.58,51.52c-1.61,11.74-7.26,17.32-19.37,17.32-6.09,0-10.57-2.28-12.47-4.92l1.17-5.8c1.69,3.45,6.16,6.16,11.81,6.16,8.44,0,12.11-3.89,13.5-13.36l.51-4.11c-1.83,2.86-5.36,5.5-10.71,5.5-8.51,0-13.94-6.02-13.94-16.36,0-13.43,8.15-22.75,19.23-22.75,5.06,0,8.59,2.5,10.05,5.58l1.03-4.4h4.48l-5.28,37.13h-.01Zm-4.04-10.27l2.64-18.64c-1.1-2.64-4.04-4.99-8.51-4.99-9.32,0-13.94,8.37-13.94,18.05,0,7.19,3.45,12.18,9.83,12.18,5.5,0,8.59-3.16,9.98-6.6Z"/>
      <path class="cls-9" d="m1082.82,309.22c8.51,0,12.18-3.89,13.5-13.36l.59-4.55c-1.76,3.38-6.24,5.94-11.37,5.94-9.39,0-13.43-6.02-11.74-16.22l2.86-17.24h-5.36l2.2-4.48h9.25l-3.38,20.69c-1.32,8.22.66,12.99,7.7,12.99,5.43,0,9.25-3.52,10.57-7.04l3.74-26.64h5.5l-5.21,37.13c-1.61,11.74-7.26,17.32-19.37,17.32-6.09,0-10.64-2.28-12.47-4.92l1.1-5.8c1.83,3.6,6.24,6.16,11.89,6.16v.02Z"/>
      <path class="cls-9" d="m1112.83,282.51c0-15.34,9.25-24.36,19.59-24.36,7.92,0,12.47,4.33,12.47,11.45,0,8-6.68,13.36-18.05,13.36-2.93,0-6.16-.44-8.07-1.17-.07.66-.07,1.25-.07,1.98,0,7.26,4.18,11.59,11.37,11.59,5.94,0,9.54-2.64,11.74-5.14l-.73,5.43c-1.47,1.61-5.14,4.26-11.81,4.26-10.05,0-16.44-5.58-16.44-17.39h0Zm26.56-12.7c0-4.18-2.42-7.12-7.63-7.12-6.24,0-11.96,5.28-12.84,15.34,1.76.59,4.33.95,6.82.95,8.95,0,13.65-3.16,13.65-9.17Z"/>
      <path class="cls-9" d="m1150.4,282.96c0-15.04,8.37-24.8,19.37-24.8,4.84,0,8.14,2.2,9.76,4.99l.88-3.74h4.48l-4.4,31.48c-.37,3.01.51,4.04,2.5,4.04,1.61,0,2.94-.95,3.6-1.62l-.59,4.84c-.73.51-2.28,1.25-4.92,1.25-3.74,0-5.72-1.98-5.8-5.94-1.32,3.16-5.14,6.46-11.23,6.46-8.44,0-13.65-5.65-13.65-16.95h0Zm24.95,5.8l3.08-21.79c-1.17-2.2-3.67-4.4-7.85-4.4-9.32,0-14.46,8.51-14.46,20.03,0,8,3.16,12.84,9.47,12.84,5.43,0,8.58-3.3,9.76-6.68Z"/>
      <path class="cls-9" d="m1197.51,259.33h4.84l-.66,7.85c1.69-5.94,6.09-8.95,10.05-8.95,1.91,0,3.08.81,3.52,1.39l-.73,5.28c-.73-.88-1.76-1.69-3.74-1.69-3.45,0-7.63,3.3-9.69,9.32l-3.6,26.27h-5.5l5.5-39.48h0Z"/>
      <path class="cls-9" d="m1215.56,295.43l.88-5.58c2.27,3.01,6.02,5.58,11.74,5.58s9.17-2.64,9.17-7.19c0-3.6-2.2-5.28-6.24-6.46l-3.82-1.17c-4.77-1.47-8.59-4.77-8.59-10.42,0-7.41,5.43-12.03,13.8-12.03,6.09,0,10.35,2.13,12.4,4.48l-.81,5.58c-2.13-3.16-6.38-5.5-11.59-5.5-4.92,0-8.59,2.2-8.59,6.68,0,3.82,2.5,5.5,6.24,6.68l3.67,1.17c5.28,1.61,8.73,4.4,8.73,10.27,0,7.63-5.65,12.4-14.6,12.4-6.24,0-10.49-2.5-12.4-4.48h0Z"/>
    </g>
  </g>
</svg>